<svg width="62" height="41" viewBox="0 0 62 41" fill="none" xmlns="http://www.w3.org/2000/svg">
<path fill-rule="evenodd" clip-rule="evenodd" d="M22.5084 0.674067C22.2936 0.76653 22.0083 1.02044 21.8743 1.23819C21.6364 1.62505 21.6307 1.82399 21.6304 9.7909L21.6299 17.9475L21.906 18.3545C22.0637 18.5871 22.3616 18.8228 22.6008 18.9045C23.1991 19.1087 38.6696 19.1087 39.2679 18.9045C39.5072 18.8228 39.805 18.5871 39.9627 18.3545L40.2388 17.9475L40.2384 9.7909C40.238 1.82099 40.2323 1.62517 39.994 1.23783C39.5272 0.47884 39.7392 0.495967 30.908 0.501118C24.3049 0.50495 22.8302 0.535372 22.5084 0.674067ZM31.4518 6.89053C31.6657 6.9818 32.6381 7.85756 33.6126 8.83681C35.0496 10.2806 35.3999 10.6992 35.466 11.0517C35.6277 11.9131 34.9131 12.7131 33.9819 12.7131C33.4533 12.7131 33.3992 12.6763 32.1856 11.4926L30.9344 10.2721L29.6831 11.4926C28.4648 12.681 28.4173 12.7131 27.8798 12.7131C26.8932 12.7131 26.1588 11.7716 26.4538 10.8852C26.6036 10.4356 29.9688 7.04432 30.451 6.857C30.8681 6.69507 31.0046 6.69962 31.4518 6.89053ZM1.00694 22.0651C0.796439 22.1265 0.483833 22.3422 0.312123 22.5443L0 22.9119V31.2107C0 39.4451 0.0019334 39.5119 0.252308 39.8274C0.804777 40.5236 0.488545 40.4999 9.24188 40.4999C18.1112 40.4999 17.8975 40.5173 18.3641 39.7585C18.6024 39.3713 18.6081 39.175 18.6085 31.2956C18.609 22.4679 18.6268 22.6986 17.9037 22.212C17.6019 22.0088 17.077 21.994 9.48573 21.9745C4.77598 21.9624 1.22952 22.0003 1.00694 22.0651ZM22.6008 22.0918C22.3616 22.1735 22.0637 22.4092 21.906 22.6418L21.6299 23.0488L21.6304 31.2055C21.6307 39.1754 21.6364 39.3712 21.8747 39.7585C22.3411 40.5169 22.1337 40.4999 30.9344 40.4999C39.7351 40.4999 39.5276 40.5169 39.994 39.7585C40.2323 39.3712 40.238 39.1754 40.2384 31.2055L40.2388 23.0488L39.9627 22.6418C39.805 22.4092 39.5072 22.1735 39.2679 22.0918C38.6696 21.8876 23.1991 21.8876 22.6008 22.0918ZM44.4128 22.0227C43.9941 22.1283 43.6479 22.4185 43.4514 22.8289C43.2824 23.1821 43.2598 24.1783 43.2603 31.2956C43.2606 39.175 43.2663 39.3713 43.5046 39.7585C43.9713 40.5173 43.7575 40.4999 52.6268 40.4999C61.3802 40.4999 61.064 40.5236 61.6164 39.8274C61.8668 39.5119 61.8687 39.4451 61.8687 31.2107V22.9119L61.5589 22.547C61.3884 22.3462 61.0486 22.1268 60.8037 22.0594C60.3543 21.9357 44.8958 21.9012 44.4128 22.0227ZM11.5774 26.9689C11.801 27.104 12.0594 27.405 12.1632 27.6514C12.462 28.3601 12.2557 28.7797 10.9998 30.0174C10.3996 30.609 9.90866 31.1492 9.90866 31.2178C9.90866 31.2865 10.3747 31.7996 10.9445 32.3581C12.3779 33.7633 12.532 34.1034 12.1226 34.9586C11.9799 35.2567 11.7639 35.4505 11.3928 35.6131C10.5628 35.9771 10.3281 35.8369 8.18033 33.693C6.41248 31.9283 6.28354 31.7692 6.28354 31.353C6.28354 31.1074 6.36136 30.7609 6.45646 30.5829C6.64992 30.2212 9.83338 27.0676 10.2108 26.864C10.5862 26.6613 11.1387 26.7037 11.5774 26.9689ZM51.6357 26.859C52.0135 27.0488 55.2056 30.1966 55.4123 30.5829C55.5074 30.7609 55.5852 31.1093 55.5852 31.3574C55.5852 31.7807 55.4639 31.9287 53.6175 33.7587L51.6499 35.7091H51.0892C50.4142 35.7091 49.8743 35.3222 49.6628 34.6871C49.4427 34.0258 49.6669 33.6048 50.8729 32.415C51.4708 31.8251 51.9601 31.2863 51.9601 31.2177C51.9601 31.149 51.4691 30.609 50.8689 30.0174C49.613 28.7797 49.4068 28.3601 49.7055 27.6514C50.0199 26.9054 50.9603 26.5194 51.6357 26.859ZM29.6831 29.5037L30.9344 30.7242L32.1856 29.5037C33.4039 28.3154 33.4514 28.2833 33.9889 28.2833C34.9755 28.2833 35.71 29.2248 35.4149 30.1111C35.2544 30.5932 31.8788 33.9617 31.3665 34.1511C30.6689 34.409 30.3679 34.2213 28.4286 32.3186C26.4376 30.3653 26.2201 30.0319 26.4621 29.3053C26.6724 28.6736 27.2139 28.2833 27.8798 28.2833C28.4173 28.2833 28.4648 28.3154 29.6831 29.5037Z" fill="#414141"/>
</svg>
