<svg width="25" height="27" viewBox="0 0 25 27" fill="none" xmlns="http://www.w3.org/2000/svg">
<path fill-rule="evenodd" clip-rule="evenodd" d="M5.01432 0.2521C4.63038 0.397722 4.40191 0.551623 3.71011 1.13039C2.67263 1.99846 1.84915 2.84337 1.43644 3.46332C-0.830727 6.86885 -0.406438 11.2661 2.65455 16.0869C4.48344 18.9674 7.44236 22.2154 9.96619 24.113C11.9383 25.5957 13.9561 26.5371 15.9137 26.8877C16.6725 27.0236 18.3569 27.0261 19.0183 26.8923C20.4314 26.6064 21.6754 26.0435 22.6542 25.2469C23.1857 24.8143 24.346 23.7634 24.5555 23.5247C24.8568 23.1816 25.0051 22.7977 24.9999 22.375C24.9888 21.4826 24.4312 20.7422 22.5796 19.1611C21.6403 18.359 21.12 17.9844 20.5421 17.6938C20.0045 17.4235 19.5927 17.3183 19.0714 17.3183C18.1673 17.3183 17.6387 17.6417 16.1233 19.1213C15.365 19.8617 15.0944 20.0089 14.4438 20.0349C13.9183 20.0559 13.4333 19.9189 12.8043 19.5716C11.5799 18.8957 9.58979 16.9344 8.17812 15.0127C6.48526 12.7082 6.10504 11.0957 7.01084 10.0625C7.10883 9.95075 7.40369 9.70069 7.66611 9.50671C8.21281 9.10275 8.54953 8.81496 9.09036 8.28954C9.71299 7.68468 9.95 7.16009 9.94785 6.39169C9.94528 5.47672 9.61306 4.67965 8.51154 2.9456C7.79853 1.82307 7.47149 1.39234 6.96467 0.908158C6.43658 0.403591 6.06652 0.215524 5.56452 0.19645C5.35204 0.188433 5.12053 0.211856 5.01432 0.2521Z" fill="#1877F2"/>
</svg>
