<svg width="43" height="45" viewBox="0 0 43 45" fill="none" xmlns="http://www.w3.org/2000/svg">
<path fill-rule="evenodd" clip-rule="evenodd" d="M11.3394 0.350329C10.6137 0.529826 9.91343 0.729149 9.78332 0.793136C9.65321 0.857124 9.36737 0.998751 9.14808 1.10773C8.92879 1.21671 8.67288 1.30587 8.57951 1.30587C8.48615 1.30587 8.40966 1.35573 8.40966 1.41663C8.40966 1.47753 8.29487 1.56348 8.15458 1.60752C7.56626 1.79272 5.99809 2.97227 4.93421 4.02967C3.88649 5.07104 2.54647 6.85592 2.54503 7.21195C2.54467 7.29363 2.49057 7.36034 2.42473 7.36034C2.3589 7.36034 2.30503 7.42789 2.30503 7.51052C2.30503 7.59302 2.20557 7.84684 2.08395 8.07442C1.79751 8.61041 1.29286 10.257 1.0555 11.4297C0.90552 12.1709 0.868652 13.2544 0.868652 16.9202C0.868652 19.4323 0.903485 21.4875 0.945978 21.4875C0.98859 21.4875 1.30747 21.3005 1.65459 21.072C2.00172 20.8434 2.32275 20.6564 2.368 20.6564C2.41312 20.6564 2.64641 20.5095 2.88629 20.33C3.12617 20.1505 3.511 19.9003 3.74142 19.7742C3.97184 19.6481 4.69003 19.2042 5.33748 18.7878C5.98493 18.3713 6.64482 17.9717 6.80378 17.8999C6.96286 17.8279 7.09298 17.7325 7.09298 17.6875C7.09298 17.6426 7.30843 17.5095 7.57177 17.3918C7.83511 17.274 8.05056 17.1324 8.05056 17.0769C8.05056 17.0216 8.1073 16.9763 8.17661 16.9763C8.24591 16.9763 8.66342 16.7438 9.10427 16.4599C9.54512 16.1758 10.1348 15.8011 10.4146 15.6273L10.9233 15.3113V13.5195C10.9233 11.5617 11.0899 10.6258 11.5741 9.86523C11.9124 9.33386 12.604 8.71666 13.1516 8.45763L13.5567 8.26614V4.13307V0L13.1078 0.0118715C12.861 0.0185196 12.0651 0.170712 11.3394 0.350329ZM16.0987 4.12357L16.1302 8.24726L16.6689 8.52589C17.286 8.84511 17.9884 9.56631 18.3615 10.2639C18.5909 10.6927 18.624 10.9837 18.6731 13.0018L18.7282 15.2599L19.6436 15.8427C20.1471 16.1633 20.8553 16.6181 21.2174 16.8535C21.5795 17.0888 22.1913 17.4666 22.5769 17.6927C22.9625 17.919 23.3997 18.1842 23.5485 18.2821C23.6972 18.3801 24.2058 18.7006 24.6785 18.9944C25.1513 19.2883 25.7644 19.6744 26.041 19.8527C26.3176 20.0309 26.6517 20.2317 26.7834 20.2988C26.9151 20.3658 27.3985 20.6607 27.8577 20.9541C28.3168 21.2474 28.7342 21.4875 28.7853 21.4875C28.8363 21.4875 28.8781 19.4852 28.8781 17.038C28.8781 12.4666 28.8223 11.7477 28.3294 9.97208C28.0688 9.03316 27.1858 6.94615 26.9733 6.76677C26.9347 6.73412 26.7989 6.52043 26.6717 6.29191C26.301 5.62615 25.2663 4.39104 24.4341 3.62081C23.2755 2.5487 22.1567 1.8408 19.9876 0.807857C19.5818 0.614589 16.9275 0 16.4988 0H16.0673L16.0987 4.12357ZM33.8735 2.1072C32.6955 3.26609 31.6234 4.42214 31.491 4.67607C31.2756 5.0892 31.266 5.19355 31.4002 5.66889C31.5843 6.32087 32.0549 6.64698 32.8128 6.64758C33.3066 6.64805 33.3929 6.59321 34.339 5.67732L35.3418 4.70646V9.27558V13.8446L35.7152 14.2233C36.0447 14.5576 36.165 14.602 36.7418 14.602C37.3043 14.602 37.4437 14.5538 37.745 14.255L38.0949 13.908L38.0987 9.29861C38.1017 5.64574 38.133 4.72617 38.2489 4.86732C38.3295 4.96526 38.7866 5.40605 39.2648 5.84672C40.0931 6.61018 40.1621 6.64805 40.722 6.64805C41.2249 6.64805 41.3714 6.59036 41.7372 6.24822C42.1042 5.90489 42.1646 5.77288 42.1646 5.31452C42.1646 4.63464 42.1199 4.57849 39.5568 2.04784L37.4829 0H36.749H36.0153L33.8735 2.1072ZM14.152 10.651C13.4554 11.1313 13.4453 11.1709 13.4409 13.4285C13.4365 15.7851 13.5021 15.9914 14.3444 16.2672C14.9857 16.4771 15.5225 16.3261 15.9456 15.817L16.3098 15.3788V13.4947C16.3098 12.0249 16.2682 11.5238 16.121 11.216C15.7924 10.5293 14.7586 10.2327 14.152 10.651ZM35.2221 17.2992C33.0541 18.1048 31.7497 19.5976 31.3993 21.6741C31.0163 23.944 32.2161 26.2084 34.3942 27.3259C35.1485 27.713 35.1902 27.72 36.7184 27.72C38.2333 27.72 38.296 27.7097 39.0879 27.3293C40.1368 26.8256 41.122 25.8768 41.5859 24.924C42.4444 23.1604 42.3182 21.0078 41.2669 19.4799C41.0283 19.1332 39.7504 17.926 39.622 17.926C39.5496 17.926 39.4052 17.8532 39.3013 17.7643C38.882 17.4057 37.9474 17.2136 36.6671 17.2231C35.9711 17.2282 35.3209 17.2625 35.2221 17.2992ZM11.0775 18.0472C10.6686 18.307 10.278 18.5196 10.2097 18.5196C10.1413 18.5196 10.0854 18.5665 10.0854 18.6239C10.0854 18.6813 9.92385 18.7946 9.72634 18.8757C9.52884 18.9568 9.36725 19.0621 9.36725 19.1095C9.36725 19.157 9.15179 19.2922 8.88845 19.4099C8.62512 19.5277 8.40966 19.6658 8.40966 19.7167C8.40966 19.7677 8.30229 19.8432 8.17098 19.8846C8.03967 19.9259 7.86359 20.023 7.77981 20.1004C7.6959 20.1777 7.43974 20.3441 7.21052 20.4703C6.9813 20.5964 6.26406 21.0403 5.61661 21.4567C4.96916 21.8732 4.30927 22.2728 4.15031 22.3446C3.99123 22.4165 3.86112 22.5139 3.86112 22.5611C3.86112 22.6082 3.76679 22.679 3.65164 22.7183C3.43702 22.7913 3.19787 22.9329 1.72055 23.8618L0.870807 24.396L0.86973 28.4596C0.868533 32.8383 0.9291 33.4615 1.55357 35.4958C2.59135 38.8767 5.17505 41.8833 8.5126 43.5939C9.528 44.1143 10.0204 44.2823 12.0684 44.807C13.0215 45.0512 16.7088 45.0681 17.5747 44.8322C17.8995 44.7438 18.4613 44.6024 18.8234 44.5181C20.802 44.057 23.609 42.3511 25.1076 40.6988C25.8817 39.8453 26.125 39.5377 26.125 39.4125C26.125 39.3478 26.1703 39.2947 26.2257 39.2947C26.2811 39.2947 26.472 39.041 26.65 38.7308C26.8279 38.4206 27.076 37.9966 27.2011 37.7884C27.763 36.8536 28.3981 34.9825 28.6953 33.3863C28.9172 32.1941 28.9679 24.3366 28.7536 24.3366C28.6469 24.3366 27.9811 23.9218 27.8008 23.743C27.7679 23.7104 27.5524 23.5805 27.322 23.4543C26.8704 23.2072 24.7157 21.8493 24.1847 21.4772C24.0064 21.3522 23.8325 21.25 23.7981 21.25C23.7637 21.25 23.425 21.0502 23.0451 20.8061C22.6653 20.5619 22.2628 20.3083 22.1507 20.2422C22.0385 20.1762 21.5648 19.8818 21.0977 19.588C20.6306 19.2942 20.1569 18.9998 20.0447 18.9337C19.8224 18.8026 19.4548 18.5715 18.504 17.9647C17.7819 17.504 17.7311 17.4959 17.4549 17.7984C17.1559 18.1262 16.0753 18.6249 15.327 18.7805C14.7818 18.894 14.5788 18.8811 13.9716 18.694C13.2148 18.4608 12.1203 17.8603 12.1203 17.6784C12.1203 17.4704 11.8162 17.578 11.0775 18.0472ZM35.741 30.7476L35.4017 31.104L35.3418 35.6155L35.282 40.1269L34.4349 39.3114C33.9394 38.8342 33.4035 38.4354 33.1439 38.3505C32.7472 38.2206 32.6407 38.2347 32.1428 38.4828C31.7002 38.7033 31.5533 38.8557 31.4291 39.2227C31.1367 40.0869 31.3106 40.3507 33.7787 42.7867L36.0141 44.9931H36.7293H37.4445L39.8045 42.6417C42.1362 40.3187 42.1646 40.2841 42.1646 39.7811C42.1646 39.1468 41.8954 38.6799 41.4058 38.4649C40.5527 38.0904 40.0174 38.32 38.7957 39.584L38.1002 40.3038L38.0975 35.6804L38.0949 31.057L37.7733 30.7241C37.4941 30.4351 37.3609 30.3911 36.766 30.3911C36.1591 30.3911 36.0413 30.432 35.741 30.7476Z" fill="#414141"/>
</svg>
